<?xml version="1.0" encoding="UTF-8"?>
<svg id="uuid-5e79dd8f-062c-4189-994e-f47ce8f8e80a" data-name="Capa 1" xmlns="http://www.w3.org/2000/svg" xmlns:xlink="http://www.w3.org/1999/xlink" viewBox="0 0 454.8 178.5">
  <defs>
    <style>
      .uuid-25665d33-d69e-42b5-9761-41f9b151d0cd {
        fill: none;
      }

      .uuid-ecb9cbe9-e4ba-4fa0-86d0-e3d734d6744f {
        fill: url(#uuid-30f5ef93-9f93-4e49-bd2f-1ca5f24451ff);
      }

      .uuid-ecb9cbe9-e4ba-4fa0-86d0-e3d734d6744f, .uuid-adcad8cc-5b12-4396-986d-818b2a652d8e, .uuid-a2c3c656-313d-4d0e-855f-5266b900418a {
        fill-rule: evenodd;
      }

      .uuid-f81d437f-9523-40eb-b80f-5715ec2d9f37 {
        clip-path: url(#uuid-92aca048-c668-436f-8936-933cb6e7b46f);
      }

      .uuid-a2c3c656-313d-4d0e-855f-5266b900418a {
        fill: url(#uuid-6da992f2-4813-42c9-a283-3b1ddda57a80);
      }

      .uuid-fc8a255d-4f89-4be2-b5a7-fe997a514b29 {
        clip-path: url(#uuid-a3661ca2-854a-442e-a6b7-0df0f6e77368);
      }

      .uuid-b5b9b03a-a69c-4066-84b6-2a530458ae26 {
        clip-path: url(#uuid-72bce49e-2a81-46ac-bf5b-dd83eed3b677);
      }
    </style>
    <clipPath id="uuid-92aca048-c668-436f-8936-933cb6e7b46f">
      <rect class="uuid-25665d33-d69e-42b5-9761-41f9b151d0cd" width="454.8" height="178.5"/>
    </clipPath>
    <clipPath id="uuid-a3661ca2-854a-442e-a6b7-0df0f6e77368">
      <rect class="uuid-25665d33-d69e-42b5-9761-41f9b151d0cd" y="117.3" width="248" height="25.2"/>
    </clipPath>
    <clipPath id="uuid-72bce49e-2a81-46ac-bf5b-dd83eed3b677">
      <rect class="uuid-25665d33-d69e-42b5-9761-41f9b151d0cd" x="96.5" y="145.8" width="151.4" height="32.7"/>
    </clipPath>
    <linearGradient id="uuid-6da992f2-4813-42c9-a283-3b1ddda57a80" data-name="Degradado sin nombre" x1="-114.65" y1="-327.05" x2="-60.25" y2="-327.05" gradientTransform="translate(115.7 430.6)" gradientUnits="userSpaceOnUse">
      <stop offset="0" stop-color="#ba121f"/>
      <stop offset="1" stop-color="#f60"/>
    </linearGradient>
    <linearGradient id="uuid-30f5ef93-9f93-4e49-bd2f-1ca5f24451ff" data-name="Degradado sin nombre 2" x1="-47.639" y1="-287.356" x2="68.719" y2="-287.356" gradientTransform="translate(385.4 375.1)" gradientUnits="userSpaceOnUse">
      <stop offset="0" stop-color="#ba121f"/>
      <stop offset="1" stop-color="#f60"/>
    </linearGradient>
  </defs>
  <g id="uuid-c30cfe85-48c6-4ad4-a99b-f551f62590b0" data-name="Fondo">
    <g class="uuid-f81d437f-9523-40eb-b80f-5715ec2d9f37">
      <g id="uuid-c7222136-f1bf-4bc8-a2cd-2adbe5bc165b" data-name="Grupo3">
        <g class="uuid-fc8a255d-4f89-4be2-b5a7-fe997a514b29">
          <g id="uuid-7c327970-c385-43f7-ae96-b370386bfe6b" data-name="Grupo1">
            <path class="uuid-adcad8cc-5b12-4396-986d-818b2a652d8e" d="M.6,117.9v18.9h13.2v-1.5H2.4v-7.5h10.5v-1.5H2.4v-6.8h11.2v-1.5H.6v-.1Z"/>
            <path class="uuid-adcad8cc-5b12-4396-986d-818b2a652d8e" d="M24.1,127.2h1.7c0-.7-.2-1.4-.4-1.9-.3-.5-.6-1-1.1-1.4-.4-.4-1-.6-1.6-.8s-1.2-.3-1.9-.3-1.2,0-1.8.2c-.6.1-1.1.4-1.6.7s-.9.7-1.2,1.2-.4,1.1-.4,1.8,0,1.1.3,1.5c.2.4.5.7.8,1,.4.3.8.5,1.2.7.5.2,1,.3,1.5.5l2.1.5c.4,0,.7.2,1.1.3.4.1.7.3,1,.5s.5.4.7.7.3.6.3,1-.1.9-.4,1.2c-.2.3-.5.6-.9.8s-.8.4-1.2.4-.8.1-1.2.1c-1.1,0-2-.3-2.8-.8-.7-.6-1.1-1.4-1.2-2.6h-1.7c.1,1.7.7,2.9,1.7,3.6,1,.8,2.3,1.1,3.9,1.1s1.3,0,1.9-.2c.7-.1,1.2-.4,1.7-.7s1-.8,1.3-1.3.5-1.2.5-1.9-.1-1.1-.3-1.6c-.2-.4-.5-.8-.9-1.1s-.8-.5-1.2-.7c-.5-.2-.9-.3-1.4-.4l-2.2-.5c-.3,0-.6-.2-.9-.3-.3-.1-.6-.3-.9-.4-.3-.2-.5-.4-.7-.6-.2-.3-.3-.6-.3-1s0-.8.3-1.1c.2-.3.5-.5.8-.7s.7-.3,1-.4c.4,0,.8-.1,1.1-.1s.9,0,1.3.2c.4.1.8.3,1.1.5s.6.6.8,1,.3.8.3,1.3h-.2Z"/>
            <path class="uuid-adcad8cc-5b12-4396-986d-818b2a652d8e" d="M40.7,141.9v-18.7h-1.5v2.6h0c-.2-.5-.4-.9-.8-1.2-.3-.4-.7-.7-1.2-1-.4-.3-.9-.5-1.4-.6s-1-.2-1.5-.2c-1,0-1.9.2-2.7.6-.8.4-1.4.9-1.9,1.6-.5.7-.9,1.4-1.1,2.3-.2.9-.4,1.8-.4,2.8s.1,1.9.4,2.8c.2.9.6,1.6,1.1,2.3s1.1,1.2,1.9,1.6c.8.4,1.7.6,2.7.6s1,0,1.5-.2c.5-.1,1-.3,1.4-.6.4-.2.8-.6,1.1-.9.3-.4.6-.8.8-1.3h0v7.6h1.7l-.1-.1ZM29.8,130c0-.7,0-1.4.2-2.1.2-.7.4-1.3.8-1.9.4-.5.8-1,1.4-1.3.6-.4,1.2-.5,2-.5s1.6.2,2.2.5c.6.3,1.1.8,1.5,1.3s.7,1.2.8,1.9c.2.7.3,1.4.3,2.1s0,1.4-.3,2.1c-.2.7-.4,1.3-.8,1.9-.4.5-.9,1-1.5,1.3s-1.3.5-2.2.5-1.5-.2-2-.5c-.6-.4-1-.8-1.4-1.3s-.6-1.2-.8-1.9-.2-1.4-.2-2.1Z"/>
            <path class="uuid-adcad8cc-5b12-4396-986d-818b2a652d8e" d="M54.9,136.8v-13.6h-1.7v7.2c0,.7,0,1.4-.2,2-.2.7-.4,1.2-.7,1.7-.3.5-.8.9-1.3,1.2s-1.1.4-1.9.4c-1.3,0-2.3-.3-2.8-1-.5-.6-.8-1.6-.8-2.8v-8.9h-1.7v8.9c0,.8,0,1.5.3,2.2.2.6.5,1.2.8,1.6.4.4.9.8,1.5,1s1.4.4,2.2.4,1.9-.2,2.8-.7c.8-.5,1.5-1.2,1.9-2.1h0v2.5h1.6Z"/>
            <path class="uuid-adcad8cc-5b12-4396-986d-818b2a652d8e" d="M67.9,129.1h-8.8c0-.6.2-1.2.4-1.8.2-.6.5-1.1.9-1.6s.8-.8,1.3-1.1,1.1-.4,1.8-.4,1.3.1,1.8.4c.5.3,1,.6,1.3,1.1.4.4.7,1,.8,1.5.2.6.3,1.2.3,1.8l.2.1ZM59.1,130.5h10.5c0-1,0-1.9-.3-2.8-.2-.9-.6-1.8-1.1-2.5s-1.1-1.3-1.9-1.7-1.7-.7-2.8-.7-2,.2-2.8.6c-.8.4-1.4,1-1.9,1.6-.5.7-.9,1.4-1.1,2.3-.2.9-.3,1.7-.3,2.6s.1,1.9.3,2.8c.2.9.6,1.6,1.1,2.3s1.1,1.2,1.9,1.6c.8.4,1.7.6,2.8.6,1.7,0,3.1-.4,4-1.3,1-.8,1.6-2,2-3.6h-1.7c-.3,1.1-.7,1.9-1.4,2.5-.7.6-1.6,1-2.9,1s-1.5-.2-2-.5c-.6-.3-1-.8-1.4-1.3s-.6-1.1-.8-1.7c-.2-.7-.2-1.3-.2-1.9v.1Z"/>
            <path class="uuid-adcad8cc-5b12-4396-986d-818b2a652d8e" d="M71.8,123.2v13.6h1.7v-7.6c0-.7,0-1.4.2-2s.4-1.1.7-1.6c.3-.5.8-.8,1.3-1.1s1.1-.4,1.9-.4,1,0,1.3.3c.4.2.7.4.9.7.2.3.4.7.5,1.1.1.4.2.8.2,1.3v9.3h1.7v-7.7c0-.6,0-1.2.2-1.8.1-.6.3-1.1.6-1.6.3-.5.7-.8,1.1-1.1.5-.3,1.1-.4,1.8-.4,1.2,0,2,.3,2.5.9.5.6.7,1.4.7,2.6v9.2h1.7v-9.3c0-3.2-1.5-4.8-4.5-4.8s-1.7.2-2.5.7c-.8.4-1.4,1.1-1.8,2-.2-.9-.7-1.6-1.5-2-.7-.4-1.5-.7-2.4-.7s-2,.2-2.8.7c-.7.5-1.3,1.1-1.7,2h0v-2.3h-1.8Z"/>
            <path class="uuid-adcad8cc-5b12-4396-986d-818b2a652d8e" d="M93.7,127.4h1.7c0-1.1.4-1.9,1.1-2.4s1.5-.8,2.6-.8,1,0,1.4.1c.4,0,.8.2,1.1.4.3.2.6.5.8.9.2.4.3.8.3,1.4s0,.7-.2.9c0,.2-.2.4-.4.6-.2.1-.4.2-.7.3-.3,0-.6,0-.9.1-.9.1-1.8.2-2.7.3-.9.1-1.6.3-2.4.6-.7.3-1.2.7-1.7,1.2-.4.5-.6,1.3-.6,2.2s.1,1.3.3,1.8c.2.5.6.9,1,1.2s.9.5,1.5.7,1.2.2,1.8.2,1.2,0,1.7-.2c.5-.1.9-.3,1.3-.5s.7-.5,1-.8c.3-.4.6-.7.9-1.2h0v1c0,.3.1.5.3.7.1.2.3.4.6.5.3.1.6.2,1,.2h1.1v-1.4c-.2,0-.3.1-.5.1-.7,0-1-.3-1-1v-7.2c0-.9-.1-1.7-.4-2.2-.3-.6-.7-1-1.2-1.3s-1-.5-1.6-.6-1.2-.2-1.8-.2-1.5,0-2.2.3c-.7.2-1.2.4-1.7.8-.5.4-.9.8-1.1,1.4-.3.6-.4,1.3-.5,2.1l.1-.2ZM102.6,129.4v2.2c0,.7-.1,1.3-.4,1.8-.2.5-.6,1-1,1.3-.4.4-.9.7-1.5.8-.6.2-1.2.3-1.8.3s-.8,0-1.1-.2c-.4-.1-.7-.3-1-.5s-.5-.5-.7-.8-.2-.7-.2-1.1c0-.7.2-1.2.6-1.5.4-.4.9-.7,1.5-.8.6-.2,1.3-.3,2-.4.8-.1,1.5-.2,2.2-.3.2,0,.5,0,.8-.2.3,0,.5-.2.6-.4h0v-.2Z"/>
            <path class="uuid-adcad8cc-5b12-4396-986d-818b2a652d8e" d="M115.2,117.9v18.9h1.8v-16h0l11,16h2v-18.9h-1.8v16h0l-11-16h-2Z"/>
            <path class="uuid-adcad8cc-5b12-4396-986d-818b2a652d8e" d="M133.4,127.4h1.7c0-1.1.4-1.9,1.1-2.4.7-.5,1.5-.8,2.6-.8s1,0,1.4.1c.4,0,.8.2,1.1.4s.6.5.8.9.3.8.3,1.4,0,.7-.2.9c0,.2-.2.4-.4.6-.2.1-.4.2-.7.3-.3,0-.6,0-.9.1-.9.1-1.8.2-2.7.3s-1.6.3-2.4.6c-.7.3-1.2.7-1.7,1.2-.4.5-.6,1.3-.6,2.2s.1,1.3.3,1.8.6.9,1,1.2.9.5,1.5.7,1.2.2,1.8.2,1.2,0,1.7-.2c.5-.1.9-.3,1.3-.5.4-.2.7-.5,1-.8.3-.4.6-.7.9-1.2h0v1c0,.3.1.5.3.7.1.2.3.4.6.5s.6.2,1,.2h1.1v-1.4c-.2,0-.3.1-.5.1-.7,0-1-.3-1-1v-7.2c0-.9-.1-1.7-.4-2.2-.3-.6-.7-1-1.2-1.3s-1-.5-1.6-.6-1.2-.2-1.8-.2-1.5,0-2.2.3c-.7.2-1.2.4-1.7.8-.5.4-.9.8-1.1,1.4-.3.6-.4,1.3-.5,2.1l.1-.2ZM142.2,129.4v2.2c0,.7-.1,1.3-.4,1.8-.2.5-.6,1-1,1.3-.4.4-.9.7-1.5.8-.6.2-1.2.3-1.8.3s-.8,0-1.1-.2c-.4-.1-.7-.3-1-.5s-.5-.5-.7-.8-.2-.7-.2-1.1c0-.7.2-1.2.6-1.5.4-.4.9-.7,1.5-.8.6-.2,1.3-.3,2-.4.8-.1,1.5-.2,2.2-.3.2,0,.5,0,.8-.2.3,0,.5-.2.6-.4h0v-.2Z"/>
            <path class="uuid-adcad8cc-5b12-4396-986d-818b2a652d8e" d="M156.9,127.5h1.7c-.2-1.6-.8-2.7-1.8-3.5s-2.2-1.2-3.7-1.2-2,.2-2.8.6c-.8.4-1.5.9-2,1.6-.5.7-1,1.4-1.2,2.3-.3.9-.4,1.8-.4,2.8s.1,1.9.4,2.8c.3.9.7,1.6,1.2,2.3s1.2,1.2,2,1.6c.8.4,1.7.6,2.8.6,1.6,0,2.8-.5,3.8-1.4s1.6-2.2,1.8-3.9h-1.7c0,.6-.2,1.1-.4,1.6s-.5.9-.9,1.2-.8.6-1.2.8c-.5.2-.9.3-1.5.3-.8,0-1.5-.2-2.1-.5s-1.1-.8-1.5-1.3-.7-1.2-.9-1.9-.3-1.4-.3-2.1,0-1.4.3-2.1c.2-.7.5-1.3.9-1.9.4-.5.9-1,1.5-1.3s1.3-.5,2.1-.5,2,.3,2.6.9c.6.6,1,1.4,1.3,2.4v-.2Z"/>
            <path class="uuid-adcad8cc-5b12-4396-986d-818b2a652d8e" d="M161,117.9v2.7h1.7v-2.7h-1.7ZM161,123.2v13.6h1.7v-13.6h-1.7Z"/>
            <path class="uuid-adcad8cc-5b12-4396-986d-818b2a652d8e" d="M171.6,124.2c.8,0,1.5.2,2.1.5s1.1.8,1.5,1.3.7,1.2.9,1.9.3,1.4.3,2.1-.1,1.4-.3,2.1c-.2.7-.5,1.3-.9,1.9-.4.5-.9,1-1.5,1.3s-1.3.5-2.1.5-1.5-.2-2.1-.5-1.1-.8-1.5-1.3-.7-1.2-.9-1.9-.3-1.4-.3-2.1,0-1.4.3-2.1c.2-.7.5-1.3.9-1.9.4-.5.9-1,1.5-1.3s1.3-.5,2.1-.5ZM171.6,122.8c-1,0-2,.2-2.8.6-.8.4-1.5.9-2,1.6-.5.7-1,1.4-1.2,2.3-.3.9-.4,1.8-.4,2.8s.1,1.9.4,2.8c.3.9.7,1.6,1.2,2.3s1.2,1.2,2,1.6c.8.4,1.7.6,2.8.6s2-.2,2.8-.6c.8-.4,1.5-.9,2-1.6.5-.7,1-1.4,1.2-2.3.3-.9.4-1.8.4-2.8s-.1-1.9-.4-2.8c-.3-.9-.7-1.6-1.2-2.3s-1.2-1.2-2-1.6c-.8-.4-1.7-.6-2.8-.6Z"/>
            <path class="uuid-adcad8cc-5b12-4396-986d-818b2a652d8e" d="M180.5,123.2v13.6h1.7v-8c0-.7.1-1.3.3-1.9.2-.6.5-1.1.8-1.5.4-.4.8-.7,1.3-1,.5-.2,1.1-.4,1.8-.4s1.2.1,1.7.3.8.5,1.1.9.4.8.6,1.3c.1.5.2,1,.2,1.6v8.5h1.7v-8.8c0-.8,0-1.5-.2-2.2s-.4-1.2-.8-1.6c-.4-.5-.9-.8-1.6-1.1-.6-.2-1.4-.4-2.4-.4s-1.9.3-2.7.8-1.4,1.2-1.7,2h0v-2.4h-1.7l-.1.3Z"/>
            <path class="uuid-adcad8cc-5b12-4396-986d-818b2a652d8e" d="M194.6,127.4h1.7c0-1.1.4-1.9,1.1-2.4.7-.5,1.5-.8,2.6-.8s1,0,1.4.1c.4,0,.8.2,1.1.4s.6.5.8.9.3.8.3,1.4,0,.7-.2.9c0,.2-.2.4-.4.6-.2.1-.4.2-.7.3-.3,0-.6,0-.9.1-.9.1-1.8.2-2.7.3s-1.6.3-2.4.6c-.7.3-1.2.7-1.7,1.2-.4.5-.6,1.3-.6,2.2s.1,1.3.3,1.8.6.9,1,1.2.9.5,1.5.7,1.2.2,1.8.2,1.2,0,1.7-.2c.5-.1.9-.3,1.3-.5.4-.2.7-.5,1-.8.3-.4.6-.7.9-1.2h0v1c0,.3.1.5.3.7.1.2.3.4.6.5s.6.2,1,.2h1.1v-1.4c-.2,0-.3.1-.5.1-.7,0-1-.3-1-1v-7.2c0-.9-.1-1.7-.4-2.2-.3-.6-.7-1-1.2-1.3s-1-.5-1.6-.6-1.2-.2-1.8-.2-1.5,0-2.2.3c-.7.2-1.2.4-1.7.8-.5.4-.9.8-1.1,1.4-.3.6-.4,1.3-.5,2.1l.1-.2ZM203.5,129.4v2.2c0,.7-.1,1.3-.4,1.8-.2.5-.6,1-1,1.3-.4.4-.9.7-1.5.8-.6.2-1.2.3-1.8.3s-.8,0-1.1-.2c-.4-.1-.7-.3-1-.5s-.5-.5-.7-.8-.2-.7-.2-1.1c0-.7.2-1.2.6-1.5.4-.4.9-.7,1.5-.8.6-.2,1.3-.3,2-.4.8-.1,1.5-.2,2.2-.3.2,0,.5,0,.8-.2.3,0,.5-.2.6-.4h0v-.2Z"/>
            <path class="uuid-adcad8cc-5b12-4396-986d-818b2a652d8e" d="M208.5,117.9v18.9h1.7v-18.9h-1.7Z"/>
            <path class="uuid-adcad8cc-5b12-4396-986d-818b2a652d8e" d="M232.7,136.8v-18.9h-1.7v7.8h0c-.2-.5-.4-.9-.8-1.3-.3-.4-.7-.7-1.1-.9-.4-.3-.9-.5-1.4-.6s-1-.2-1.5-.2c-1,0-1.9.2-2.7.6-.8.4-1.4.9-1.9,1.6-.5.7-.9,1.4-1.1,2.3-.2.9-.4,1.8-.4,2.8s.1,1.9.4,2.8c.2.9.6,1.6,1.1,2.3s1.1,1.2,1.9,1.6c.8.4,1.7.6,2.7.6s1,0,1.5-.2c.5-.1,1-.3,1.4-.6s.8-.6,1.2-1,.6-.8.8-1.2h0v2.6h1.5l.1-.1ZM221.8,130c0-.7,0-1.4.2-2.1.2-.7.4-1.3.8-1.9.4-.5.8-1,1.4-1.3.6-.4,1.2-.5,2-.5s1.6.2,2.2.5c.6.3,1.1.8,1.5,1.3s.7,1.2.8,1.9c.2.7.3,1.4.3,2.1s0,1.4-.3,2.1c-.2.7-.4,1.3-.8,1.9-.4.5-.9,1-1.5,1.3s-1.3.5-2.2.5-1.5-.2-2-.5c-.6-.4-1-.8-1.4-1.3s-.6-1.2-.8-1.9-.2-1.4-.2-2.1Z"/>
            <path class="uuid-adcad8cc-5b12-4396-986d-818b2a652d8e" d="M245.7,129.1h-8.8c0-.6.2-1.2.4-1.8.2-.6.5-1.1.9-1.6s.8-.8,1.3-1.1,1.1-.4,1.8-.4,1.3.1,1.8.4c.5.3,1,.6,1.3,1.1.4.4.7,1,.8,1.5.2.6.3,1.2.3,1.8l.2.1ZM236.9,130.5h10.5c0-1,0-1.9-.3-2.8-.2-.9-.6-1.8-1.1-2.5s-1.1-1.3-1.9-1.7-1.7-.7-2.8-.7-2,.2-2.8.6c-.8.4-1.4,1-1.9,1.6-.5.7-.9,1.4-1.1,2.3-.2.9-.3,1.7-.3,2.6s.1,1.9.3,2.8c.2.9.6,1.6,1.1,2.3s1.1,1.2,1.9,1.6c.8.4,1.7.6,2.8.6,1.7,0,3.1-.4,4-1.3,1-.8,1.6-2,2-3.6h-1.7c-.3,1.1-.7,1.9-1.4,2.5-.7.6-1.6,1-2.9,1s-1.5-.2-2-.5c-.6-.3-1-.8-1.4-1.3s-.6-1.1-.8-1.7c-.2-.7-.2-1.3-.2-1.9v.1Z"/>
          </g>
        </g>
        <g class="uuid-b5b9b03a-a69c-4066-84b6-2a530458ae26">
          <g id="uuid-006e5ccd-d057-4618-96e7-15b94cd36714" data-name="Grupo2">
            <path class="uuid-adcad8cc-5b12-4396-986d-818b2a652d8e" d="M112.3,154h3c0-1.3-.3-2.4-.8-3.4-.4-1-1.1-1.8-1.9-2.4-.8-.6-1.7-1.1-2.7-1.4-1-.3-2.2-.4-3.4-.4s-2.2.1-3.2.4c-1,.3-2,.7-2.8,1.3s-1.4,1.3-1.9,2.2-.7,1.9-.7,3.1.2,2,.6,2.7,1,1.3,1.7,1.8c.7.4,1.6.8,2.5,1.1s1.8.5,2.8.7,1.9.4,2.8.6c.9.2,1.7.5,2.4.8s1.3.7,1.7,1.2.7,1.2.7,2-.2,1.6-.5,2.1c-.4.6-.8,1-1.4,1.3-.6.3-1.2.5-2,.7-.7.1-1.4.2-2.1.2s-1.8-.1-2.6-.3c-.8-.2-1.6-.6-2.2-1-.6-.5-1.1-1.1-1.5-1.8s-.6-1.6-.6-2.6h-3c0,1.4.3,2.7.8,3.8.5,1,1.2,1.9,2.1,2.6.9.7,2,1.2,3.1,1.5,1.2.3,2.5.5,3.8.5s2.2-.1,3.3-.4c1.1-.2,2.1-.6,3-1.2.9-.6,1.6-1.3,2.2-2.2.6-.9.9-2,.9-3.3s-.2-2.2-.7-2.9c-.4-.8-1-1.4-1.7-1.9s-1.5-.9-2.4-1.2-1.9-.6-2.8-.8c-.9-.2-1.9-.4-2.8-.6-.9-.2-1.7-.4-2.5-.7-.7-.3-1.3-.7-1.7-1.1-.4-.5-.6-1.1-.6-1.8s.1-1.4.4-1.9.7-1,1.2-1.3,1.1-.5,1.7-.7c.6-.1,1.3-.2,2-.2,1.6,0,3,.4,4,1.2,1.1.8,1.7,2,1.9,3.7h-.1Z"/>
            <path class="uuid-adcad8cc-5b12-4396-986d-818b2a652d8e" d="M131.7,160.6h-9.9c0-.7.2-1.3.4-1.9.2-.6.6-1.1,1-1.6.4-.4.9-.8,1.5-1,.6-.3,1.3-.4,2-.4s1.4.1,1.9.4c.6.2,1.1.6,1.5,1s.8.9,1,1.5c.3.6.4,1.2.5,1.9l.1.1ZM134.4,165.4h-2.8c-.2,1.1-.8,2-1.5,2.5-.8.6-1.7.8-2.9.8s-1.8-.2-2.4-.5c-.7-.3-1.3-.7-1.7-1.2s-.8-1.1-1-1.8-.3-1.4-.3-2.2h12.9c0-1,0-2.2-.3-3.3-.2-1.2-.6-2.2-1.3-3.2-.6-1-1.4-1.8-2.4-2.4-1-.6-2.3-1-3.8-1s-2.3.2-3.3.7c-1,.4-1.8,1.1-2.6,1.9-.7.8-1.3,1.8-1.7,2.8-.4,1.1-.6,2.3-.6,3.6s.2,2.5.6,3.6c.4,1.1.9,2.1,1.6,2.9.7.8,1.5,1.4,2.5,1.9,1,.4,2.2.7,3.6.7,2,0,3.6-.5,4.9-1.5,1.3-1,2.1-2.4,2.5-4.4v.1Z"/>
            <path class="uuid-adcad8cc-5b12-4396-986d-818b2a652d8e" d="M152.6,169.4v-15.8h-2.7v2.5h0c-.5-1-1.2-1.7-2.1-2.1-.9-.5-1.9-.7-3-.7s-2.8.3-3.8.9c-1,.6-1.9,1.3-2.5,2.2s-1.1,1.9-1.3,2.9c-.3,1.1-.4,2.1-.4,3.1s.2,2.3.5,3.4c.3,1,.8,2,1.5,2.8.6.8,1.4,1.4,2.4,1.9s2.1.7,3.4.7,2.2-.2,3.1-.7c1-.5,1.8-1.3,2.2-2.4h0v1.1c0,1,0,1.8-.3,2.6-.2.8-.5,1.5-.9,2-.4.6-1,1-1.6,1.3s-1.4.5-2.4.5-1,0-1.5-.2c-.5,0-1-.2-1.4-.5-.4-.2-.8-.5-1.1-.9s-.4-.8-.5-1.3h-2.8c0,.9.3,1.7.7,2.4s1,1.2,1.7,1.6c.7.4,1.4.7,2.3.9.8.2,1.7.3,2.5.3,2.8,0,4.8-.7,6.1-2.1,1.3-1.4,1.9-3.5,1.9-6.4h0ZM144.6,168.6c-.9,0-1.7-.2-2.3-.6-.6-.4-1.1-.9-1.5-1.5s-.6-1.4-.8-2.1-.2-1.6-.2-2.3,0-1.6.3-2.4c.2-.8.5-1.4.9-2s1-1,1.6-1.4,1.4-.5,2.3-.5,1.7.2,2.3.5,1.1.8,1.5,1.4c.4.6.7,1.2.9,2,.2.7.3,1.5.3,2.2s0,1.6-.3,2.4c-.2.8-.5,1.5-.9,2.2-.4.6-.9,1.1-1.6,1.5-.6.4-1.4.6-2.4.6h-.1Z"/>
            <path class="uuid-adcad8cc-5b12-4396-986d-818b2a652d8e" d="M171.2,170.9v-17.3h-2.8v9.8c0,.8-.1,1.5-.3,2.2-.2.6-.5,1.2-.9,1.7s-1,.9-1.6,1.1c-.6.3-1.4.4-2.2.4s-2-.3-2.6-.9-.9-1.5-.9-2.5v-11.7h-2.8v11.4c0,.9,0,1.8.3,2.6.2.8.5,1.4,1,2s1.1,1,1.8,1.3c.8.3,1.7.4,2.8.4s2.4-.2,3.3-.7c.9-.5,1.7-1.3,2.3-2.4h0v2.7h2.7l-.1-.1Z"/>
            <path class="uuid-adcad8cc-5b12-4396-986d-818b2a652d8e" d="M175.3,153.6v17.3h2.8v-7.7c0-1.1.1-2.1.3-2.9.2-.9.6-1.6,1.1-2.2.5-.6,1.1-1.1,1.9-1.4.8-.3,1.8-.5,2.9-.5v-3c-1.5,0-2.8.3-3.8.9-1,.7-1.9,1.7-2.5,3.1h0v-3.6h-2.7Z"/>
            <path class="uuid-adcad8cc-5b12-4396-986d-818b2a652d8e" d="M189.6,150.5v-3.5h-2.8v3.5h2.8ZM186.7,153.6v17.3h2.8v-17.3h-2.8Z"/>
            <path class="uuid-adcad8cc-5b12-4396-986d-818b2a652d8e" d="M196.1,162.4c0-.8,0-1.7.3-2.5.2-.8.5-1.5.9-2.1s.9-1.1,1.6-1.5c.7-.4,1.5-.6,2.4-.6s1.8.2,2.5.6c.7.4,1.2.8,1.7,1.4.4.6.8,1.3,1,2.1s.3,1.6.3,2.4,0,1.6-.3,2.4c-.2.8-.5,1.5-.9,2.1s-1,1.1-1.6,1.5c-.7.4-1.5.6-2.4.6s-1.7-.2-2.4-.5c-.7-.4-1.2-.8-1.7-1.4-.4-.6-.7-1.3-1-2-.2-.8-.3-1.6-.3-2.4l-.1-.1ZM209.5,170.9v-23.9h-2.8v8.9h0c-.3-.5-.7-.9-1.2-1.3-.4-.4-.9-.6-1.4-.8s-1-.4-1.5-.5c-.5,0-1-.1-1.4-.1-1.3,0-2.5.2-3.5.7s-1.8,1.1-2.5,1.9c-.6.8-1.1,1.8-1.5,2.8-.3,1.1-.5,2.3-.5,3.5s.2,2.4.5,3.5.8,2.1,1.5,2.9c.7.8,1.5,1.5,2.5,2s2.2.7,3.5.7,2.3-.2,3.3-.6,1.7-1.1,2.2-2.1h0v2.3h2.8v.1Z"/>
            <path class="uuid-adcad8cc-5b12-4396-986d-818b2a652d8e" d="M229.2,170.8v-2.2c-.3.1-.6.2-.9.2-.4,0-.7-.2-.8-.5v-10.4c0-1-.2-1.8-.6-2.4-.4-.6-.9-1.1-1.5-1.4-.6-.4-1.3-.6-2.1-.7-.8-.1-1.5-.2-2.3-.2s-1.9,0-2.7.3c-.9.2-1.6.5-2.3,1-.7.4-1.2,1-1.6,1.8-.4.7-.6,1.6-.7,2.7h2.8c0-1.3.5-2.1,1.3-2.6s1.8-.7,3-.7.9,0,1.3.1c.5,0,.9.2,1.2.4.4.2.7.5.9.9s.4.9.4,1.5-.2.9-.5,1.2-.7.5-1.3.6c-.5.1-1.2.2-1.9.3-.7,0-1.4.2-2.2.3-.7.1-1.5.3-2.2.5s-1.3.5-1.9.9c-.5.4-1,.9-1.3,1.5s-.5,1.4-.5,2.4.1,1.6.4,2.2c.3.6.7,1.1,1.2,1.5s1.1.6,1.8.8,1.4.3,2.2.3c1.2,0,2.3-.2,3.3-.6,1-.4,2-1.1,2.7-2,0,.9.2,1.6.6,2,.4.4,1,.6,1.8.6s1.5-.1,2-.4l.4.1ZM224.5,162v2.9c0,.4,0,.8-.3,1.3-.2.4-.5.9-.9,1.3-.4.4-1,.7-1.6,1-.7.2-1.5.4-2.4.4s-.8,0-1.3-.1c-.4,0-.8-.2-1.1-.4s-.5-.5-.7-.8-.3-.7-.3-1.2c0-.7.2-1.3.5-1.7s.8-.7,1.3-1c.5-.2,1.1-.4,1.7-.5.6-.1,1.3-.2,1.9-.3.6,0,1.3-.2,1.8-.3.6-.1,1-.3,1.4-.6h0Z"/>
            <path class="uuid-adcad8cc-5b12-4396-986d-818b2a652d8e" d="M233.9,162.4c0-.8,0-1.7.3-2.5.2-.8.5-1.5.9-2.1s.9-1.1,1.6-1.5,1.5-.6,2.4-.6,1.8.2,2.5.6c.7.4,1.2.8,1.7,1.4.4.6.8,1.3,1,2.1s.3,1.6.3,2.4,0,1.6-.3,2.4c-.2.8-.5,1.5-.9,2.1s-1,1.1-1.6,1.5c-.7.4-1.5.6-2.4.6s-1.7-.2-2.4-.5c-.7-.4-1.2-.8-1.7-1.4-.4-.6-.7-1.3-1-2-.2-.8-.3-1.6-.3-2.4l-.1-.1ZM247.2,170.9v-23.9h-2.8v8.9h0c-.3-.5-.7-.9-1.2-1.3-.4-.4-.9-.6-1.4-.8s-1-.4-1.5-.5c-.5,0-1-.1-1.4-.1-1.3,0-2.5.2-3.5.7s-1.8,1.1-2.5,1.9c-.6.8-1.1,1.8-1.5,2.8-.3,1.1-.5,2.3-.5,3.5s.2,2.4.5,3.5.8,2.1,1.5,2.9c.7.8,1.5,1.5,2.5,2s2.2.7,3.5.7,2.3-.2,3.3-.6c1-.4,1.7-1.1,2.2-2.1h0v2.3h2.8v.1Z"/>
          </g>
        </g>
        <path class="uuid-adcad8cc-5b12-4396-986d-818b2a652d8e" d="M123.1,46.6h-55.5c.2-4,1.1-7.7,2.4-11.1,1.4-3.6,3.2-6.7,5.6-9.3s5.2-4.7,8.4-6.2c3.4-1.6,7.1-2.4,11.2-2.4s7.6.8,10.8,2.4c3.4,1.5,6.2,3.5,8.6,6.2,2.5,2.5,4.4,5.6,5.8,9.1,1.5,3.6,2.4,7.3,2.6,11.3h.1ZM127.9,101.2c7.7-5.8,14.9-14.5,17.1-26h-16.7c-1.5,6.8-6.8,11.8-11.4,15.1-4.5,3.3-10.3,5-17.5,5s-10.4-.9-14.5-2.8-7.5-4.3-10.1-7.3c-2.6-3.2-4.6-6.8-5.8-10.7-1.2-4.1-1.7-8.4-1.6-12.9h71.6c.3-6.2,2.8-58.8-44.7-58.8s-44.8,45.6-44.8,53.4c.3,7.8,1.4,15,3.4,21.6,2.1,6.6,5.2,12.3,9.3,17.1,4.1,4.8,9.1,8.5,15.1,11.1,6.1,2.6,13.2,4,21.4,4,11.6,0,21.3-2.9,29-8.7l.2-.1Z"/>
        <path class="uuid-adcad8cc-5b12-4396-986d-818b2a652d8e" d="M145,5.7h15.9v16.3h.4c7-12.4,18.1-18.7,33.4-18.7s12.4.9,16.9,2.8,8.1,4.4,10.9,7.7c2.8,3.3,4.7,7.3,5.8,11.9,1.2,4.5,1.8,9.5,1.8,15.1v28.1c0,5.8,2.1,10.8,5,14.7,3.3,4.6,6.2,7.7,12.9,9.1v16.7c-11.5-2.3-20.2-7.2-26-14.9-5.7-7.6-8.8-17-8.8-28.4v-27.2c0-6.4-1.9-11.4-5.6-15.1-3.7-3.7-8.8-5.6-15.3-5.6s-9.7.8-13.5,2.4c-3.7,1.6-6.8,3.8-9.3,6.8-2.5,2.9-4.4,6.4-5.8,10.3-1.2,3.8-1.8,8.1-1.8,12.7v24.8h-16.9V5.7h0Z"/>
        <path class="uuid-adcad8cc-5b12-4396-986d-818b2a652d8e" d="M304,68.8c0-9.5-14.2-12.8-18.4-13.9-4.1-1.2-8.6-2.3-13.5-3.2-5-1-9.6-2.4-13.9-4.1-4.3-1.8-7.9-4.4-10.8-7.6-3-3.4-4.4-8-4.4-13.8s1-8.5,3-11.8c2.1-3.2,4.7-5.9,7.8-7.9,3.2-2.1,6.8-3.6,10.7-4.5,4-1,7.9-1.5,11.8-1.5s9.6.5,13.8,1.4c4.2.8,8,2.3,11.3,4.5,3.4,2.1,6.1,5,8,8.7,2.5,4.5,3.2,9.4,3.5,14.6h-16.3c-.2-2.5-.5-5.1-2.1-7.3-1.1-1.8-2.6-3.2-4.4-4.2s-3.8-1.8-6.1-2.2c-2.1-.5-4.4-.8-6.6-.8s-4.2.2-6.4.5c-2,.3-3.9.9-5.6,1.8-1.6.7-3,1.8-4,3.1-.9,1.1-1.4,2.7-1.4,4.7s.7,4,2.2,5.4c1.7,1.5,3.8,2.7,6.4,3.8,2.6,1,5.6,1.9,8.9,2.6,3.3.7,6.7,1.4,10.1,2.2,3.6.8,7.1,1.7,10.5,2.9,12.8,3.7,21.3,13.1,22.6,21.3,3.5,21.7-12.7,34.7-40.1,34.7s-32.7-5.4-32.7-5.4v-17.4s12,6.1,26.9,6.6c16.8.6,29.2-.8,29.2-13.3v.1Z"/>
        <path class="uuid-a2c3c656-313d-4d0e-855f-5266b900418a" d="M50.2,108.8H6.3c-7,0-7-10.5,0-10.5h43.9c7,0,7,10.5,0,10.5Z"/>
        <path class="uuid-ecb9cbe9-e4ba-4fa0-86d0-e3d734d6744f" d="M425.3,57.9c-7.8.3-18.8,2.6-34.9,7.1-20.1,6-34.1,12.9-42.6,21.9.9,4.9,2,10.3,3.3,16.3,8.7,32.4,13.6,39.7,65.6,21.7,15.8-5.5,23.5-12.9,13.7-49.2-1.8-6.7-3.4-12.6-5-17.7l-.1-.1ZM347.8,86.9c-7.5-40.4-1.3-43.4,12.9-48.3,45-15.6,54.2-13.9,64.6,19.3,15.5-.7,17.8,6.3,21,18.3,15.9,59,9.1,49.1-34.8,61.1-49.3,13.8-66.1,12-71-6-5.2-19.4-3.1-33.5,7.2-44.4h.1Z"/>
      </g>
    </g>
  </g>
</svg>